<svg xmlns="http://www.w3.org/2000/svg" viewBox="0 0 24 24" style="color:#119CD8;">
  <g stroke-width="1.6" stroke-linecap="round" fill="none" stroke="currentColor" stroke-linejoin="round">
    <path data-cap="butt" d="M5.2,1A14.94,14.94,0,0,1,7,8c0,4-3,6-1.8,15"></path>
    <path data-cap="butt" d="M18.8,1A14.94,14.94,0,0,0,17,8c0,4,3,6,1.8,15"></path>
    <line x1="12" y1="22" x2="12" y2="20"></line>
    <line data-cap="butt" x1="5.836" y1="13" x2="18.164" y2="13"></line>
    <path data-cap="butt" d="M12,20s-3.209-4-6.865-4"></path>
    <path data-cap="butt" d="M12,20s3.209-4,6.865-4"></path>
    <circle cx="12" cy="9" r="1" fill="currentColor" stroke="none"></circle>
    <path d="M.82,6.116A.5.5,0,0,0,0,6.5v5a.5.5,0,0,0,.288.453A.507.507,0,0,0,.5,12a.5.5,0,0,0,.32-.116l3-2.5a.5.5,0,0,0,0-.768Z" stroke="none" fill="currentColor"></path>
    <path d="M23.712,6.047a.5.5,0,0,0-.532.069l-3,2.5a.5.5,0,0,0,0,.768l3,2.5A.5.5,0,0,0,23.5,12a.507.507,0,0,0,.212-.047A.5.5,0,0,0,24,11.5v-5A.5.5,0,0,0,23.712,6.047Z" stroke="none" fill="currentColor"></path>
  </g>
</svg>
