<svg xmlns="http://www.w3.org/2000/svg" viewBox="0 0 24 24" style="color:#119CD8;">
  <g stroke-width="1.6" stroke-linecap="round" fill="none" stroke="currentColor" stroke-linejoin="round">
    <path d="M18.945,13 C18.981,13.328,19,13.662,19,14c0,4.971-4.029,9-9,9s-9-4.029-9-9s4.029-9,9-9c0.338,0,0.672,0.019,1,0.055"></path>
    <circle cx="10" cy="14" r="5"></circle>
    <line data-cap="butt" x1="19" y1="5" x2="22" y2="2"></line>
    <line data-cap="butt" x1="10" y1="14" x2="16" y2="8"></line>
    <polygon points="19,5 18,2 15,5 16,8 19,9 22,6 "></polygon>
    <polygon points="19,5 18,2 15,5 16,8 19,9 22,6 "></polygon>
  </g>
</svg>
