<svg xmlns="http://www.w3.org/2000/svg" xmlns:xlink="http://www.w3.org/1999/xlink" data-name="Layer 1" viewBox="0 0 839.2 727.1">
  <defs>
    <linearGradient id="a" x1="484.9" x2="600.8" y1="578.2" y2="578.2" gradientUnits="userSpaceOnUse">
      <stop offset="0" stop-color="gray" stop-opacity=".3"/>
      <stop offset=".5" stop-color="gray" stop-opacity=".1"/>
      <stop offset="1" stop-color="gray" stop-opacity=".1"/>
    </linearGradient>
    <linearGradient id="b" x1="615.8" x2="651.5" y1="530.7" y2="530.7" xlink:href="#a"/>
    <linearGradient id="c" x1="745.5" x2="780" y1="595.6" y2="595.6" xlink:href="#a"/>
    <linearGradient id="d" x1="634.3" x2="634.3" y1="509.9" y2="96" xlink:href="#a"/>
    <linearGradient id="e" x1="637.1" x2="637.1" y1="586.8" y2="513.3" xlink:href="#a"/>
    <linearGradient id="f" x1="454.9" x2="454.9" y1="727.1" y2="487.9" xlink:href="#a"/>
  </defs>
  <g fill="#47e6b1" opacity=".5">
    <path d="M124.2 129.5h3.3v18.9h-3.3z"/>
    <path d="M135.3 137.3v3.3h-19v-3.3z"/>
  </g>
  <g fill="#47e6b1" opacity=".5">
    <path d="M242.6 540.2h3.3v18.9h-3.3z"/>
    <path d="M253.7 548v3.2h-19V548z"/>
  </g>
  <g fill="#47e6b1" opacity=".5">
    <path d="M76.9 321h3.3v18.9h-3.3z"/>
    <path d="M88 328.8v3.3H69v-3.3z"/>
  </g>
  <g fill="#47e6b1" opacity=".5">
    <path d="M659.9 0h3.3v18.9h-3.3z"/>
    <path d="M671 7.8v3.3h-19V7.8z"/>
  </g>
  <g fill="#47e6b1" opacity=".5">
    <path d="M98 46.9h3.3v18.9H98z"/>
    <path d="M109 54.7V58H90.3v-3.3z"/>
  </g>
  <path fill="#4d8af0" d="M165.1 472.8a4 4 0 01-2.3-4.9 2 2 0 00.1-.4 2 2 0 00-3.7-1.4 2 2 0 00-.2.4 4 4 0 01-5 2.3 2 2 0 00-.4-.1 2 2 0 00-1.3 3.7 2 2 0 00.4.2 4 4 0 012.3 5 2 2 0 00-.1.4 2 2 0 003.6 1.3 2 2 0 00.3-.4 4 4 0 014.9-2.2 2 2 0 00.4 0 2 2 0 001.4-3.6 2 2 0 00-.4-.3zM148.6 652.2a4 4 0 01-2.3-5 2 2 0 00.1-.4 2 2 0 00-3.7-1.3 2 2 0 00-.2.4 4 4 0 01-4.9 2.2 2 2 0 00-.4 0 2 2 0 00-1.4 3.6 2 2 0 00.4.2 4 4 0 012.3 5 2 2 0 00-.1.4 2 2 0 003.6 1.4 2 2 0 00.3-.4 4 4 0 014.9-2.3 2 2 0 00.5.1 2 2 0 001.3-3.7 2 2 0 00-.4-.2zM755.6 255.2a4 4 0 01-2.3-5 2 2 0 00.1-.4 2 2 0 00-3.6-1.3 2 2 0 00-.3.4 4 4 0 01-4.9 2.2 2 2 0 00-.5 0 2 2 0 00-1.3 3.6 2 2 0 00.4.3 4 4 0 012.3 4.9 2 2 0 00-.1.4 2 2 0 003.6 1.4 2 2 0 00.3-.4 4 4 0 014.9-2.3 2 2 0 00.4.1 2 2 0 001.4-3.7 2 2 0 00-.4-.2zM728.1 444.5a4 4 0 01-2.2-4.9 2 2 0 000-.4 2 2 0 00-3.6-1.4 2 2 0 00-.2.4 4 4 0 01-5 2.3 2 2 0 00-.4-.1 2 2 0 00-1.4 3.7 2 2 0 00.4.2 4 4 0 012.3 5 2 2 0 00-.1.4 2 2 0 003.7 1.3 2 2 0 00.2-.4 4 4 0 015-2.2 2 2 0 00.4 0 2 2 0 001.3-3.6 2 2 0 00-.4-.3zM748.6 67.2a4 4 0 01-2.3-5 2 2 0 00.1-.4 2 2 0 00-3.6-1.3 2 2 0 00-.3.4 4 4 0 01-5 2.2 2 2 0 00-.4 0 2 2 0 00-1.3 3.6 2 2 0 00.4.2 4 4 0 012.3 5 2 2 0 00-.1.4 2 2 0 003.6 1.4 2 2 0 00.3-.4 4 4 0 014.9-2.3 2 2 0 00.4.1 2 2 0 001.4-3.7 2 2 0 00-.4-.2zM812.8 559.3a4 4 0 01-2.2-5 2 2 0 000-.4 2 2 0 00-3.6-1.4 2 2 0 00-.3.4 4 4 0 01-4.9 2.3 2 2 0 00-.4-.1 2 2 0 00-1.4 3.7 2 2 0 00.4.2 4 4 0 012.3 5 2 2 0 00-.1.4 2 2 0 003.7 1.3 2 2 0 00.2-.4 4 4 0 015-2.2 2 2 0 00.4 0 2 2 0 001.3-3.6 2 2 0 00-.4-.2z" opacity=".5"/>
  <circle cx="6.7" cy="257.8" r="6.7" fill="#f55f44" opacity=".5"/>
  <circle cx="749.8" cy="146.1" r="6.7" fill="#f55f44" opacity=".5"/>
  <circle cx="446.9" cy="396" r="7.5" fill="#f55f44" opacity=".5"/>
  <circle cx="446.9" cy="396" r="7.5" fill="#f55f44" opacity=".5"/>
  <circle cx="832.5" cy="346.3" r="6.7" fill="#f55f44" opacity=".5"/>
  <circle cx="294.2" cy="47.3" r="7.5" fill="#47e6b1" opacity=".5"/>
  <circle cx="721.5" cy="621.4" r="6.7" fill="#f55f44" opacity=".5"/>
  <path fill="none" stroke="url(#a)" stroke-miterlimit="10" stroke-width="2" d="M487.1 468c-4 12.8 2 28 13.5 34.6 4.9 2.9 10.4 4.3 15.1 7.3 10.2 6.7 14.2 19.4 17.5 31 3.8 13.5 7.7 27.8 4.2 41.3-2.2 8.6-7.3 16.3-10.2 24.7a51.5 51.5 0 00-2.4 22c.4 4 1.4 8 4 11 4 4.1 10.3 4.8 16 5.8a76.8 76.8 0 0155.1 42.7" transform="translate(-180.4 -86.5)"/>
  <path fill="none" stroke="#535461" stroke-miterlimit="10" stroke-width="2" d="M308 381.5c-4 12.8 2 28 13.4 34.7 4.9 2.8 10.4 4.2 15.1 7.3 10.2 6.6 14.2 19.3 17.6 31 3.8 13.5 7.6 27.7 4 41.2-2.1 8.7-7.2 16.3-10 24.7a51.5 51.5 0 00-2.5 22c.4 4 1.4 8 4.1 11 3.9 4.2 10.2 4.8 15.8 5.8a76.8 76.8 0 0155.2 42.8"/>
  <path fill="none" stroke="url(#b)" stroke-miterlimit="10" stroke-width="2" d="M637.5 372.4c-9.8 13.6-19.9 28.1-20.7 44.8-1.3 25.6 19.2 46.5 28.4 70.4a83.7 83.7 0 01-2.9 65.5c-4.4 9.3-10.8 18.4-10 28.6.5 6.3 3.6 12 6.1 17.7a99.4 99.4 0 01-5.7 89.7" transform="translate(-180.4 -86.5)"/>
  <path fill="none" stroke="#535461" stroke-miterlimit="10" stroke-width="2" d="M458.3 286c-9.8 13.5-19.8 28-20.7 44.7-1.3 25.6 19.2 46.5 28.3 70.5a83.7 83.7 0 01-2.8 65.5c-4.4 9.2-10.8 18.4-10 28.6.5 6.2 3.6 11.9 6.1 17.6a99.4 99.4 0 01-5.7 89.8"/>
  <path fill="none" stroke="url(#c)" stroke-miterlimit="10" stroke-width="2" d="M773.8 494.3l4.7 38.3c.7 5 1.2 10.6-1.5 15-2.6 4.1-7.5 6-11.3 9.1-12.4 10-11.3 29.1-7 44.4s10.5 31.9 4.5 46.6c-2.5 6.1-6.8 11.2-10 17a51.9 51.9 0 00-6.2 32.2" transform="translate(-180.4 -86.5)"/>
  <path fill="none" stroke="#535461" stroke-miterlimit="10" stroke-width="2" d="M594.6 407.8l4.7 38.3c.6 5.1 1.2 10.7-1.6 15-2.6 4.1-7.4 6.1-11.2 9.1-12.4 10-11.3 29.2-7 44.5s10.4 31.8 4.5 46.6c-2.5 6-6.8 11.2-10 17a51.9 51.9 0 00-6.2 32"/>
  <path fill="url(#d)" d="M895.7 336.8a113.6 113.6 0 00-148.7-108 136.4 136.4 0 001.4-19.2 113.5 113.5 0 00-226.7-8.2 113.6 113.6 0 00-148.8 108c0 57 42 138 96.7 152.4l8.5 4.8-4.6 15.9h27.3l-6-15.9 8.5-4.8c42.3-11.1 77-62 90.5-110.9a83 83 0 0024.2 11l8.6 4.9-4.6 15.8h27.4l-6-15.9 8.5-4.8a79.2 79.2 0 0018-7.3c7.3 54.8 46.2 121.6 95.4 134.6l8.5 4.8-4.6 15.8h27.3l-6-15.8 8.6-4.8c54.6-14.4 96.6-95.4 96.6-152.4z" opacity=".7" transform="translate(-180.4 -86.5)"/>
  <path fill="#f55f44" d="M324.8 390.1h-26.5l4.6-15.8h15.9l6 15.8zM420.7 222.7c0 60.7-49.2 149.6-109.8 149.6S201 283.3 201 222.7a109.9 109.9 0 01219.7 0z"/>
  <path fill="#535461" d="M318.8 374.9h-15.9l-9.3-5.3h34.5l-9.3 5.3z"/>
  <path fill="#fff" d="M271.1 137.3s-46.3 25.2-52.9 75.5" opacity=".1"/>
  <path fill="#4d8af0" d="M468.4 293.6h-26.5l4.7-15.9h15.9l5.9 15.9z"/>
  <path fill="#6c63ff" d="M564.4 126.1c0 60.7-49.2 149.6-109.9 149.6s-109.8-89-109.8-149.6a109.9 109.9 0 01219.7 0z"/>
  <path fill="#535461" d="M462.5 278.3h-15.9l-9.3-5.3h34.4l-9.2 5.3z"/>
  <path fill="#fff" d="M414.8 40.7s-46.3 25.2-53 75.5" opacity=".1"/>
  <path fill="#3ad29f" d="M610.9 416.7h-26.5l4.6-15.9h15.9l6 15.9zM706.9 249.3c0 60.6-49.2 149.5-110 149.5S487.2 310 487.2 249.3a109.9 109.9 0 11219.7 0z"/>
  <path fill="#535461" d="M604.9 401.5H589l-9.2-5.3h34.4l-9.3 5.3z"/>
  <path fill="#fff" d="M557.3 163.9s-46.3 25.1-53 75.4" opacity=".1"/>
  <path fill="url(#e)" d="M696.8 521.9a29 29 0 00-26.2-7.2c-9.8 1.7-19.6 7-27.6 15a32.3 32.3 0 00-5.8 8 32.4 32.4 0 00-5.7-8.3A52.1 52.1 0 00604 514c-10.5-2-19.8.4-26.3 6.7s-9.1 15.5-7.5 26a52.4 52.4 0 0014.6 28c16.6 17 49.7 10.4 51 10h.5l1.2.3c1.4.3 34.4 7.5 51.3-9.3 8-8 13.3-17.8 15-27.6a28.9 28.9 0 00-7-26.2zm-66.5 53c-8 1-28 2.5-37.8-7.7a41.8 41.8 0 01-11.7-22c-1.1-7 .4-13 4.4-16.9a14.8 14.8 0 015.4-3.3 22.2 22.2 0 0111.5-.5 41.8 41.8 0 0121.7 12.4c9.9 10.1 7.8 30 6.5 38zm63.1-28.6a41.7 41.7 0 01-12 21.9c-10.2 10-30 8.2-38 7-1.2-8-3-28 7.1-38a41.7 41.7 0 0122-12 22.2 22.2 0 0111.4.8 14.8 14.8 0 015.4 3.4c3.8 3.9 5.3 9.9 4.1 16.9z" opacity=".5" transform="translate(-180.4 -86.5)"/>
  <path fill="#6c63ff" d="M458.7 496.1l-3.1.7c-1.4.3-33 6.7-49-9.7a50.6 50.6 0 01-14-26.7c-1.5-10 1-19 7.3-25s15.1-8.2 25.1-6.3c9.4 1.7 18.7 7 26.3 14.8 15.8 16.3 8.4 47.8 8.1 49.1zm-46.5-56.5a14.1 14.1 0 00-5.2 3.2c-3.7 3.7-5.2 9.4-4.2 16A40 40 0 00414 480c9.5 9.8 28.5 8.4 36.2 7.4 1.3-7.7 3.3-26.7-6.2-36.4a40 40 0 00-20.8-12 21.3 21.3 0 00-11 .6z"/>
  <path fill="#6c63ff" d="M454 496.3l-.7-3.2c-.3-1.3-7.1-32.9 9-49 7.7-7.6 17.1-12.7 26.5-14.3 10-1.7 19 .7 25 6.9s8.5 15 6.8 25A50.2 50.2 0 01506 488c-16 16-47.6 9.1-49 8.8zm47.5-55.8a21.3 21.3 0 00-11-.7 40.1 40.1 0 00-21 11.5c-9.6 9.6-8 28.6-6.8 36.3 7.6 1.1 26.7 2.9 36.3-6.7a40 40 0 0011.6-21c1.1-6.7-.3-12.4-4-16.2a14.1 14.1 0 00-5-3.2z"/>
  <path fill="url(#f)" d="M608.4 487.9h-307v61.4h16v177.8h275.1V549.3h15.9v-61.4z" opacity=".5"/>
  <path fill="#535461" d="M320.9 506.4H589V724H320.9z"/>
  <path fill="#6c63ff" d="M429.7 545.3h50.5v178.8h-50.5z"/>
  <path d="M320.9 494.8H589v54.4H320.9z" opacity=".1"/>
  <path fill="#535461" d="M305.3 490.9h299.2v54.4H305.3z"/>
  <path fill="#6c63ff" d="M429.7 490.9h50.5v54.4h-50.5z"/>
</svg>
