<svg xmlns="http://www.w3.org/2000/svg" viewBox="0 0 24 24" style="color:#222528;">
  <g stroke-width="1.6" stroke-linecap="round" fill="none" stroke="currentColor" stroke-linejoin="round">
    <path d="M19,21h4V16.677a1,1,0,0,0-.629-.928l-3.742-1.5A1,1,0,0,1,18,13.323v-.878A3.982,3.982,0,0,0,20,9V7a4,4,0,0,0-6-3.465"></path>
    <path d="M14.371,16.749l-3.742-1.5A1,1,0,0,1,10,14.323v-.451C13.27,13.435,14,12,14,12s-2-2-2-4A4,4,0,0,0,4,8c0,2-2,4-2,4s.73,1.435,4,1.872v.451a1,1,0,0,1-.629.928l-3.742,1.5A1,1,0,0,0,1,17.677V21H15V17.677A1,1,0,0,0,14.371,16.749Z"></path>
  </g>
</svg>
