<?xml version="1.0" encoding="UTF-8"?>
<svg width="56px" height="56px" viewBox="0 0 56 56" version="1.1" xmlns="http://www.w3.org/2000/svg" xmlns:xlink="http://www.w3.org/1999/xlink">
    <title>icon_rezepte</title>
    <g id="icon_rezepte" stroke="none" stroke-width="1" fill="none" fill-rule="evenodd">
        <g id="Group-2" fill-rule="nonzero">
            <circle id="Oval" fill="#FFF8EF" cx="28" cy="28" r="28"></circle>
            <g id="chef" transform="translate(19.000000, 19.000000)" fill="#F4BD81">
                <path d="M14.44,1.28 C14.0066145,1.27888179 13.5768232,1.35861897 13.17268,1.51512 C13.5189133,1.99949842 13.7772492,2.54100175 13.93588,3.11488 C13.9680982,3.22566363 13.938187,3.34521322 13.8575946,3.42777169 C13.7770023,3.51033017 13.6582082,3.54311369 13.5466804,3.51357452 C13.4351525,3.48403535 13.3481604,3.3967475 13.319,3.28512 C12.8934454,1.7480453 11.6829127,0.553046808 10.1404702,0.147378917 C8.59802765,-0.258288973 6.95621629,0.186532825 5.82952,1.31536 C7.00825117,2.08262195 7.719454,3.39355137 7.72,4.8 C7.72,4.97673112 7.57673112,5.12 7.4,5.12 C7.22326888,5.12 7.08,4.97673112 7.08,4.8 C7.07959935,2.94858911 5.64507601,1.41393714 3.79789825,1.28881008 C1.9507205,1.16368301 0.32233837,2.49085501 0.0722594489,4.32529852 C-0.177819472,6.15974202 1.03589325,7.87436014 2.84916,8.24824 C2.97853441,8.27475986 3.07832802,8.37803298 3.1004,8.50824 L4.15044,14.72 L6.09632,14.72 L5.80084,10.5828 L5.80116,10.5828 C5.8006,10.57524 5.8,10.56772 5.8,10.56004 C5.80221147,10.3893626 5.9379962,10.2504662 6.10857971,10.2443888 C6.27916321,10.2383114 6.42448809,10.3671927 6.43884,10.53728 L6.43916,10.53728 L6.73796,14.72 L8.68,14.72 L8.68,11.2 C8.68,11.0232689 8.82326888,10.88 9,10.88 C9.17673112,10.88 9.32,11.0232689 9.32,11.2 L9.32,14.72 L11.26204,14.72 L11.56084,10.5372 L11.56116,10.5372 C11.5755152,10.3671073 11.720851,10.2382265 11.8914398,10.2443148 C12.0620286,10.2504031 12.197807,10.3893167 12.2,10.56 C12.2,10.56768 12.1994,10.5752 12.19884,10.58276 L12.19916,10.58276 L11.90368,14.72 L13.84956,14.72 L14.8996,8.50836 C14.921672,8.37815298 15.0214656,8.27487986 15.15084,8.24836 C16.9197424,7.88386119 18.1258659,6.23988119 17.9425809,4.4431392 C17.7592959,2.64639722 16.2460662,1.27981749 14.44,1.28 L14.44,1.28 Z" id="Path"></path>
                <polygon id="Path" opacity="0.465388808" points="4.2 15.36 13.8 15.36 13.8 17.92 4.2 17.92"></polygon>
            </g>
        </g>
    </g>
</svg>