<?xml version="1.0" encoding="UTF-8"?>
<svg width="56px" height="56px" viewBox="0 0 56 56" version="1.1" xmlns="http://www.w3.org/2000/svg" xmlns:xlink="http://www.w3.org/1999/xlink">
    <title>icon_abnehmen</title>
    <g id="icon_abnehmen" stroke="none" stroke-width="1" fill="none" fill-rule="evenodd">
        <g id="Group-4" fill-rule="nonzero">
            <circle id="Oval" fill="#F1F1FF" cx="28" cy="28" r="28"></circle>
            <g id="weight-1" transform="translate(19.240000, 16.833300)" fill="#716FF4">
                <path d="M15.7598,7.81904 C16.3102,7.07944 16.61332,6.1644 16.61332,5.24248 C16.61332,2.86276 14.67736,0.92672 12.2976,0.92672 L5.22248,0.92672 C2.84272,0.92672 0.90668,2.86276 0.90668,5.24248 C0.90668,6.1644 1.2098,7.07944 1.7602,7.81904 L3.1266,9.65512 C1.8592,11.05232 1.16716,12.84072 1.16716,14.7462 C1.16716,16.10392 1.53,17.43644 2.21648,18.59976 C2.88252,19.7284 3.8344,20.67124 4.96928,21.32632 L5.10848,21.40668 L12.41144,21.40668 L12.55064,21.32632 C13.68552,20.67124 14.63744,19.7284 15.30344,18.59976 C15.98996,17.43644 16.3528,16.10392 16.3528,14.7462 C16.3528,12.84072 15.66072,11.05232 14.39336,9.65512 L15.7598,7.81904 Z M5.22248,4.72672 L12.29764,4.72672 L12.7114,5.55044 L10.89912,8.08712 C10.22488,7.87072 9.50624,7.7534 8.76008,7.7534 C8.01392,7.7534 7.29532,7.87072 6.62104,8.08712 L4.80872,5.5504 L5.22248,4.72672 Z M7.42784,16.42616 L6.4548,15.13616 L6.16008,15.4642 L6.16008,16.42612 L4.87012,16.42612 L4.87012,12.53396 L6.16004,12.53396 L6.16004,13.94628 L7.43892,12.53396 L8.86796,12.53396 L7.31104,14.24652 L8.9458,16.42616 L7.42784,16.42616 L7.42784,16.42616 Z M11.08072,15.45312 C11.24196,15.45312 11.39768,15.42532 11.55892,15.3586 L11.55892,14.37444 L12.69876,14.37444 L12.69876,16.02028 C12.22612,16.34276 11.5756,16.51516 11.00284,16.51516 C9.74624,16.51516 8.82876,15.67556 8.82876,14.48008 C8.82876,13.2846 9.74624,12.445 11.03064,12.445 C11.798,12.445 12.41516,12.71188 12.80992,13.19564 L11.97032,13.93516 C11.72568,13.6516 11.44212,13.507 11.09736,13.507 C10.51908,13.507 10.15212,13.87956 10.15212,14.48008 C10.15216,15.06388 10.51916,15.45312 11.08072,15.45312 Z" id="Shape"></path>
            </g>
        </g>
    </g>
</svg>