<?xml version="1.0" encoding="UTF-8"?>
<svg width="56px" height="56px" viewBox="0 0 56 56" version="1.1" xmlns="http://www.w3.org/2000/svg" xmlns:xlink="http://www.w3.org/1999/xlink">
    <title>icon_kaloriendefizit</title>
    <g id="icon_kaloriendefizit" stroke="none" stroke-width="1" fill="none" fill-rule="evenodd">
        <g id="Group" fill-rule="nonzero">
            <circle id="Oval" fill="#EBF9FF" cx="28" cy="28" r="28"></circle>
            <g id="calories" transform="translate(19.500000, 17.500000)">
                <path d="M8.04096,14.26644 C7.43568,14.72712 6.186,15.8664 6.186,17.41864 C6.186,18.4434 7.01768,19.27712 8.04,19.27712 C9.06232,19.27712 9.894,18.4434 9.894,17.41864 C9.894,15.9486 8.6436,14.7558 8.04096,14.26644 Z" id="Path" fill="#87B5C9"></path>
                <path d="M12.84528,3.82451109 C12.62044,3.57023109 12.23236,3.55483109 11.98752,3.78339109 L9.16412,6.41855109 L9.16412,0.899951094 C9.16412,0.437991094 8.60712,0.0928310942 8.19,0.345151094 C8.11104,0.392911094 6.23472,1.53867109 4.33884,3.61935109 C2.03368,6.14927109 0.46372,9.22963109 0.46372,12.6841911 C0.46372,17.1261911 4.0688,20.7399911 8.5,20.7399911 C6.816,20.7399911 5.446,19.3666311 5.446,17.6785911 C5.446,14.9509111 8.09432,13.3357511 8.20704,13.2683111 C8.40464,13.1501911 8.65204,13.1557111 8.8442,13.2823111 C8.95484,13.3552711 11.55396,15.0985911 11.55396,17.6785511 C11.554,19.3666311 10.184,20.7399911 8.5,20.7399911 C12.9312,20.7399911 16.53628,17.1261911 16.53628,12.6841911 C16.53628,9.33003109 15.0562,6.32367109 12.84528,3.82451109 Z" id="Path" fill="#C8DEE8"></path>
            </g>
        </g>
    </g>
</svg>