<?xml version="1.0" encoding="UTF-8"?>
<svg width="56px" height="56px" viewBox="0 0 56 56" version="1.1" xmlns="http://www.w3.org/2000/svg" xmlns:xlink="http://www.w3.org/1999/xlink">
    <title>icon_coachletter</title>
    <g id="icon_coachletter" stroke="none" stroke-width="1" fill="none" fill-rule="evenodd">
        <g id="Group-3" fill-rule="nonzero">
            <circle id="Oval" fill="#F1F1FF" cx="28" cy="28" r="28"></circle>
            <g id="whistle" transform="translate(17.500000, 19.500000)">
                <path d="M7.02668,6.84 C5.58572,6.84 4.4134,8.01236 4.4134,9.45332 C4.4134,10.89428 5.58572,12.06664 7.02668,12.06664 C8.46768,12.06664 9.64004,10.89428 9.64004,9.45332 C9.64004,8.01236 8.46768,6.84 7.02668,6.84 Z" id="Path" fill="#423FD3"></path>
                <path d="M19.88,2.42664 L10.84,2.42664 L10.84,4.312 C10.84,4.64336 10.57132,4.912 10.24,4.912 C9.9086,4.912 9.64,4.64336 9.64,4.312 L9.64,2.42664 L7.02664,2.42664 C6.1026,2.42664 5.21984,2.60628 4.41092,2.93192 C4.36108,1.759 3.39168,0.82 2.20664,0.82 C0.98992,0.82 0,1.80988 0,3.02664 C0,3.99672 0.62948,4.822 1.50124,5.117 C0.56128,6.31212 0,7.8184 0,9.45332 C0,13.32788 3.15216,16.48 7.02668,16.48 C10.9012,16.48 14.0534,13.32784 14.0534,9.45332 C14.0534,9.3626 14.0516,9.27152 14.04804,9.18032 L19.95444,8.442 C20.25468,8.40448 20.48004,8.14924 20.48004,7.84664 L20.48004,3.02664 C20.48004,2.69528 20.21136,2.42664 19.88,2.42664 Z M2.20668,4.03332 C1.6516,4.03332 1.2,3.58172 1.2,3.02664 C1.2,2.47156 1.6516,2.02 2.20668,2.02 C2.76176,2.02 3.2134,2.47156 3.2134,3.02664 C3.2134,3.58172 2.76176,4.03332 2.20668,4.03332 Z M7.02668,13.26664 C4.92404,13.26664 3.2134,11.55596 3.2134,9.45332 C3.2134,7.35068 4.924,5.64 7.02668,5.64 C9.12936,5.64 10.84,7.35068 10.84,9.45332 C10.84,11.55596 9.12936,13.26664 7.02668,13.26664 L7.02668,13.26664 Z" id="Shape" fill="#BCBBF1"></path>
            </g>
        </g>
    </g>
</svg>