<?xml version="1.0" encoding="UTF-8"?>
<svg width="56px" height="56px" viewBox="0 0 56 56" version="1.1" xmlns="http://www.w3.org/2000/svg" xmlns:xlink="http://www.w3.org/1999/xlink">
    <title>icon_menueplaene</title>
    <g id="icon_menueplaene" stroke="none" stroke-width="1" fill="none" fill-rule="evenodd">
        <g id="Group-7" fill-rule="nonzero">
            <circle id="Oval" fill="#F0F7FB" cx="28" cy="28" r="28"></circle>
            <g id="cutlery" transform="translate(20.500000, 18.500000)">
                <path d="M7.05358621,6.26177759 C7.05358621,2.80368586 5.47515138,0 3.53137931,0 C1.58687345,0 0.00917241379,2.80368586 0.00917241379,6.26177759 C0.00917241379,7.76669552 0.95782931,9.04175276 2.28544448,9.54541 L1.96587759,17.2196017 C1.96587759,18.0841934 2.66678759,18.7851034 3.53137931,18.7851034 C4.39597103,18.7851034 5.09688103,18.0841934 5.09688103,17.2196017 L4.77731414,9.54609793 C6.10589241,9.04175276 7.05358621,7.76669552 7.05358621,6.26177759 Z" id="Path" fill="#A9CFDF"></path>
                <path d="M14.098,5.6747431 L13.9023983,0 L12.923931,0 L12.7283293,5.6747431 L11.9454638,5.6747431 L11.7498621,0 L10.5757931,0 L10.3801914,5.6747431 L9.59732586,5.6747431 L9.40172414,0 L8.4232569,0 L8.22765517,5.6747431 C8.22765517,6.86853276 8.94314931,7.89116517 9.9673869,8.34996931 L9.59732586,17.2196017 C9.59732586,18.0841934 10.2982359,18.7851034 11.1628276,18.7851034 C12.0274193,18.7851034 12.7283293,18.0841934 12.7283293,17.2196017 L12.3582683,8.34996931 C13.3825059,7.89116517 14.098,6.86853276 14.098,5.6747431 Z" id="Path" fill="#CCE0E9"></path>
            </g>
        </g>
    </g>
</svg>