<?xml version="1.0" encoding="UTF-8"?>
<svg width="56px" height="56px" viewBox="0 0 56 56" version="1.1" xmlns="http://www.w3.org/2000/svg" xmlns:xlink="http://www.w3.org/1999/xlink">
    <title>icon_tagebuch</title>
    <g id="icon_tagebuch" stroke="none" stroke-width="1" fill="none" fill-rule="evenodd">
        <g id="Group-5" fill-rule="nonzero">
            <circle id="Oval" fill="#FBEEEC" cx="28" cy="28" r="28"></circle>
            <g id="book" transform="translate(19.000000, 20.500000)">
                <path d="M16.32,12.7971875 L16.32,0 L15.8317188,0.04093752 C13.8734375,0.20281248 11.9526562,0.67093752 10.1395312,1.42843752 L9.28,1.78531248 L9.28,14.531875 L9.90593752,14.2717188 C11.7821875,13.4910938 13.76875,13.008125 15.7939062,12.84 L16.32,12.7971875 Z" id="Path" fill="#DF6751"></path>
                <path d="M17.92,1.891875 L16.96,1.891875 L16.96,13.091875 C16.960625,13.25875 16.8326562,13.398125 16.66625,13.411875 L15.8467188,13.4790625 C15.6101562,13.4985938 15.3742188,13.5228125 15.1392188,13.5517188 C15.0629688,13.5609375 14.9871875,13.573125 14.9114062,13.58375 C14.7529688,13.6048438 14.5948438,13.62625 14.4371875,13.65125 C14.3453125,13.6659375 14.2540625,13.683125 14.1625,13.6992188 C14.0214062,13.7239062 13.88,13.7484375 13.7392188,13.77625 C13.643125,13.7954688 13.5471875,13.8170312 13.4492188,13.8378125 C13.3151562,13.86625 13.1810938,13.8953125 13.0479688,13.9270312 C12.948125,13.9507812 12.8485938,13.9759375 12.749375,14.00125 C12.6198438,14.0332812 12.4909375,14.0678125 12.3621875,14.10375 C12.2620312,14.13125 12.161875,14.1603125 12.0620312,14.1896875 C11.9340625,14.2275 11.8079688,14.2659375 11.6815625,14.30625 C11.5826562,14.3382812 11.4835938,14.3703125 11.385,14.4021875 C11.2584375,14.4448438 11.1325,14.4889062 11.0070312,14.534375 C10.9110938,14.5692188 10.815,14.6042188 10.716875,14.6409375 C10.6729688,14.6576562 10.629375,14.6754688 10.585625,14.6925 L17.92,14.6925 L17.92,1.891875 Z" id="Path" fill="#F4C8C0"></path>
                <path d="M2.08828124,0.04093752 L1.6,0 L1.6,12.798125 L2.16796876,12.8464062 C4.191875,13.015625 6.17671876,13.5015625 8.04984376,14.2864062 L8.64,14.531875 L8.64,1.78531248 L7.78140624,1.42875 C5.968125,0.67109376 4.04703124,0.20281248 2.08828124,0.04093752 Z" id="Path" fill="#DF6751"></path>
                <path d="M0,1.891875 L0,14.691875 L7.33953124,14.691875 C7.30015624,14.6764062 7.26078124,14.6598438 7.22109376,14.6451562 C7.12953124,14.6103125 7.03718752,14.5770312 6.945,14.5434375 C6.815,14.49625 6.68515624,14.4503125 6.55421876,14.4064062 C6.45953124,14.374375 6.36453124,14.3432812 6.269375,14.3129688 C6.13953124,14.2703125 6.00921876,14.2301562 5.87875,14.1926562 C5.78265624,14.1645312 5.68671876,14.13625 5.59078124,14.109375 C5.45921876,14.0729688 5.32734376,14.0384375 5.19515624,14.0045312 C5.09921876,13.9798438 5.003125,13.9551562 4.905,13.9321875 C4.77093752,13.9001562 4.63609376,13.8707812 4.50140624,13.841875 C4.40546876,13.8210938 4.309375,13.8 4.21343752,13.7807812 C4.07390624,13.7532812 3.93375,13.7285938 3.79359376,13.7040625 C3.70171876,13.6879688 3.60984376,13.6720312 3.51781248,13.655625 C3.363125,13.6310938 3.20796876,13.6103125 3.05281248,13.589375 C2.974375,13.5789062 2.89656248,13.5664062 2.81828124,13.5575 C2.58359376,13.5290625 2.34890624,13.5048438 2.11421876,13.4848438 L1.25281248,13.411875 C1.08671876,13.3976562 0.959375,13.2584375 0.96,13.091875 L0.96,1.891875 L0,1.891875 Z" id="Path" fill="#F4C8C0"></path>
            </g>
        </g>
    </g>
</svg>