<?xml version="1.0" encoding="UTF-8"?>
<svg width="56px" height="56px" viewBox="0 0 56 56" version="1.1" xmlns="http://www.w3.org/2000/svg" xmlns:xlink="http://www.w3.org/1999/xlink">
    <title>icon_fitness_plaene</title>
    <g id="icon_fitness_plaene" stroke="none" stroke-width="1" fill="none" fill-rule="evenodd">
        <g id="Group-9" fill-rule="nonzero">
            <circle id="Oval" fill="#F0F9FC" cx="28" cy="28" r="28"></circle>
            <g id="dumbbell" transform="translate(17.500000, 17.500000)">
                <path d="M20.12232,6.29116 L18.4288,4.59764 L19.70188,3.32504 C19.81444,3.2126 19.87772,3.06024 19.87772,2.90088 C19.87772,2.74152 19.81444,2.58916 19.70192,2.47668 L17.99744,0.7722 C17.77244,0.5472 17.374,0.5472 17.149,0.7722 L15.8764,2.04528 L14.18264,0.35144 C13.71404,-0.11716 12.95424,-0.11716 12.4856,0.35144 C12.01692,0.82004 12.01692,1.57984 12.4856,2.04848 L18.42524,7.9882 C18.89392,8.4568 19.65372,8.4568 20.12232,7.9882 C20.59092,7.5196 20.59092,6.7598 20.12232,6.29116 Z" id="Path" fill="#87B5C9"></path>
                <path d="M7.9944,18.43144 L2.05476,12.49172 C1.58608,12.02312 0.82636,12.02312 0.35768,12.49172 C-0.11092,12.9604 -0.11092,13.7202 0.35768,14.1888 L2.05148,15.8826 L0.78088,17.15268 C0.66836,17.2652 0.60508,17.41752 0.60508,17.57688 C0.60508,17.73624 0.66836,17.8886 0.78088,18.00108 L2.48536,19.705 C2.60252,19.82224 2.75604,19.88084 2.90956,19.88084 C3.06308,19.88084 3.2166,19.82224 3.33376,19.70504 L4.60384,18.43496 L6.29736,20.12852 C6.76596,20.59712 7.52576,20.59712 7.9944,20.12852 C8.46308,19.65984 8.46308,18.90004 7.9944,18.43144 Z" id="Path" fill="#87B5C9"></path>
                <polygon id="Path" fill="#C8DEE8" points="10.78852 7.13968 7.14588 10.79472 9.69148 13.34032 13.33412 9.6852"></polygon>
                <path d="M18.42528,9.68524 L10.78852,2.04848 C10.31992,1.57988 9.56008,1.57988 9.09148,2.04848 C8.6228,2.51716 8.6228,3.27688 9.09148,3.74556 L16.72824,11.38232 C17.19684,11.85092 17.95664,11.85092 18.42528,11.38232 C18.89396,10.91372 18.89396,10.15392 18.42528,9.68524 Z" id="Path" fill="#87B5C9"></path>
                <path d="M11.38856,16.7344 L3.75176,9.0976 C3.28316,8.629 2.52336,8.629 2.05476,9.0976 C1.58608,9.56628 1.58608,10.32608 2.05476,10.79468 L9.69152,18.43144 C10.16012,18.90004 10.91992,18.90004 11.38856,18.43144 C11.85724,17.96284 11.85724,17.20304 11.38856,16.7344 Z" id="Path" fill="#87B5C9"></path>
            </g>
        </g>
    </g>
</svg>