<?xml version="1.0" encoding="UTF-8"?>
<svg width="56px" height="56px" viewBox="0 0 56 56" version="1.1" xmlns="http://www.w3.org/2000/svg" xmlns:xlink="http://www.w3.org/1999/xlink">
    <title>icon_barcodescanner</title>
    <g id="icon_barcodescanner" stroke="none" stroke-width="1" fill="none" fill-rule="evenodd">
        <g id="Group-8" fill-rule="nonzero">
            <circle id="Oval" fill="#FEF8F1" cx="28" cy="28" r="28"></circle>
            <polygon id="Path" fill="#F1AF67" points="19.5 19.5 19.5 24.9614 20.8654 24.9614 20.8654 20.8654 24.9614 20.8654 24.9614 19.5"></polygon>
            <polygon id="Path" fill="#F1AF67" points="34.5186 30.4228 34.5186 34.5188 30.4226 34.5188 30.4226 35.884 35.884 35.884 35.884 30.4228"></polygon>
            <polygon id="Path" fill="#F1AF67" points="20.8654 34.5188 20.8654 30.4228 19.5 30.4228 19.5 35.884 24.9614 35.884 24.9614 34.5188"></polygon>
            <polygon id="Path" fill="#F1AF67" points="30.4226 19.5 30.4226 20.8654 34.5186 20.8654 34.5186 24.9614 35.884 24.9614 35.884 19.5"></polygon>
            <rect id="Rectangle" fill="#F6DABA" x="22.2306" y="22.2306" width="1.024" height="10.922"></rect>
            <rect id="Rectangle" fill="#F6DABA" x="24.278" y="22.2306" width="1.7068" height="10.922"></rect>
            <rect id="Rectangle" fill="#F6DABA" x="27.0094" y="22.2306" width="1.024" height="10.922"></rect>
            <rect id="Rectangle" fill="#F6DABA" x="29.0574" y="22.2306" width="1.024" height="10.922"></rect>
            <rect id="Rectangle" fill="#F6DABA" x="31.106" y="22.2306" width="2.048" height="10.922"></rect>
        </g>
    </g>
</svg>