<?xml version="1.0" encoding="UTF-8"?>
<svg width="56px" height="56px" viewBox="0 0 56 56" version="1.1" xmlns="http://www.w3.org/2000/svg" xmlns:xlink="http://www.w3.org/1999/xlink">
    <title>icon_community</title>
    <g id="icon_community" stroke="none" stroke-width="1" fill="none" fill-rule="evenodd">
        <g id="Group-6" fill-rule="nonzero">
            <path d="M28,30 C29.1046,30 30,29.1045 30,28 C30,26.8954 29.1046,26 28,26 C26.8955,26 26,26.8954 26,28 C26,29.1045 26.8955,30 28,30 Z" id="Path" fill="#DF6751" opacity="0.3"></path>
            <circle id="Oval" fill="#FEF3F1" cx="28" cy="28" r="28"></circle>
            <g id="community-manager" transform="translate(18.500000, 17.500000)">
                <circle id="Oval" fill="#EDAA9E" cx="9.08" cy="9.04" r="1"></circle>
                <path d="M17.2544,12.88084 C17.13488,12.812 17.00876,12.76176 16.88,12.72204 L16.88,7.75452 C17.0084,7.71504 17.13532,7.66796 17.2544,7.59916 C18.1134,7.10288 18.40928,6.00012 17.91356,5.14 C17.41668,4.281 16.31396,3.98396 15.45496,4.48084 C15.35684,4.53696 15.26936,4.60292 15.18712,4.67324 L10.84696,2.12708 C10.86668,2.02068 10.88,1.912 10.88,1.8 C10.88,0.80744 10.07256,0 9.08,0 C8.08744,0 7.28,0.80744 7.28,1.8 C7.28,1.912 7.29332,2.02068 7.31304,2.12708 L2.97284,4.6732 C2.8906,4.60288 2.80312,4.53688 2.70616,4.4808 C1.84484,3.98452 0.74268,4.281 0.2464,5.14056 C-0.24932,6.00012 0.0466,7.10288 0.90556,7.59916 C1.02472,7.66792 1.1516,7.71504 1.27996,7.75456 L1.27996,12.722 C1.15128,12.76164 1.02516,12.8118 0.90556,12.8808 C0.0466,13.37712 -0.24928,14.47984 0.2464,15.34 C0.74688,16.20548 1.85116,16.49128 2.70616,15.99916 C2.80312,15.94304 2.8906,15.87708 2.97284,15.80676 L7.31304,18.35288 C7.29332,18.45932 7.28,18.568 7.28,18.68 C7.28,19.67256 8.08744,20.48 9.08,20.48 C10.07256,20.48 10.88,19.67256 10.88,18.68 C10.88,18.58376 10.86624,18.49112 10.8516,18.39888 L15.33988,15.91616 C16.24964,16.54196 17.41116,16.20916 17.9136,15.33936 C18.40928,14.47984 18.1134,13.37712 17.2544,12.88084 Z M9.68,15.58148 C10.09368,15.52868 10.4976,15.4446 10.88,15.30828 L10.88,13.84 C10.88,12.84744 10.07256,12.04 9.08,12.04 C8.08744,12.04 7.28,12.84744 7.28,13.84 L7.28,15.30828 C7.6624,15.4446 8.06632,15.52868 8.48,15.58148 L8.48,16.99052 C8.27176,17.0648 8.0834,17.17576 7.91836,17.31652 L3.56712,14.764 C3.60644,14.5508 3.6082,14.33216 3.56844,14.11492 L4.73916,13.4392 C5.10984,13.94024 5.5616,14.378 6.08,14.72584 L6.08,13.84 C6.08,12.18588 7.42588,10.84 9.08,10.84 C8.08744,10.84 7.28,10.03256 7.28,9.04 C7.28,8.04744 8.08744,7.24 9.08,7.24 C10.07256,7.24 10.88,8.04744 10.88,9.04 C10.88,10.03256 10.07256,10.84 9.08,10.84 C10.73412,10.84 12.08,12.18588 12.08,13.84 L12.08,14.72588 C12.5984,14.37804 13.05016,13.94028 13.42084,13.43924 L14.59148,14.11496 C14.54088,14.39152 14.55228,14.6722 14.6286,14.93724 L10.27692,17.3456 C10.1042,17.19056 9.90288,17.07 9.68,16.99052 L9.68,15.58148 Z M2.48,12.80408 L2.48,7.676 C2.65448,7.60408 2.81976,7.52132 2.96156,7.40048 L4.13792,8.07952 C3.847,8.74228 3.68,9.47104 3.68,10.24 C3.68,11.00904 3.84904,11.73664 4.14024,12.39912 L2.96148,13.07952 C2.81968,12.95868 2.65448,12.876 2.48,12.80408 L2.48,12.80408 Z M15.68,7.67592 L15.68,12.804 C15.50552,12.87592 15.34024,12.95868 15.19844,13.07952 L14.01976,12.39912 C14.31096,11.73664 14.48,11.00904 14.48,10.24 C14.48,9.47104 14.313,8.74228 14.02208,8.07952 L15.19848,7.40048 C15.34032,7.52132 15.50552,7.604 15.68,7.67592 L15.68,7.67592 Z M14.59156,6.36504 L13.41096,7.04648 C12.54024,5.8692 11.20828,5.07252 9.68,4.90064 L9.68,3.48948 C9.88824,3.4152 10.0766,3.30424 10.24164,3.16348 L14.59288,5.716 C14.55352,5.9292 14.55176,6.1478 14.59156,6.36504 Z M8.48,4.90064 C6.95172,5.07252 5.61976,5.8692 4.74904,7.04648 L3.56852,6.36504 C3.60836,6.1478 3.60652,5.92924 3.56712,5.71604 L7.91836,3.16348 C8.08336,3.30424 8.27176,3.4152 8.48,3.48948 L8.48,4.90064 Z" id="Shape" fill="#DF6751"></path>
            </g>
        </g>
    </g>
</svg>