<svg xmlns="http://www.w3.org/2000/svg" viewBox="0 0 24 24" style="color:#FFFFFF;">
  <g stroke-width="1.6" stroke-linecap="round" fill="none" stroke="currentColor" stroke-linejoin="round">
    <path d="M17,0h0V2a3,3,0,0,1-3,3h0V3A3,3,0,0,1,17,0Z" fill="currentColor" stroke="none"></path>
    <path d="M5.991,18a13.364,13.364,0,0,0,.924,1.8c2.755,4.483,5.5,2.957,7.085,2.935,1.588.022,4.33,1.548,7.085-2.935,2.892-4.707,2.18-10.032.037-11.788-2.325-1.9-4.9-.532-7.122-.517-2.22-.015-4.8-1.387-7.122.517A6.07,6.07,0,0,0,5.071,12" data-cap="butt"></path>
    <line x1="5" y1="14" x2="5" y2="12"></line>
    <line x1="9" y1="14" x2="9" y2="12"></line>
    <line x1="13" y1="14" x2="13" y2="12"></line>
    <polygon points="17 18 1 18 1 12 5 12 17 12 17 18"></polygon>
  </g>
</svg>
