<?xml version="1.0" encoding="UTF-8"?>
<svg xmlns="http://www.w3.org/2000/svg" xmlns:xlink="http://www.w3.org/1999/xlink" width="185px" height="61px" viewBox="0 0 185 61" version="1.1">
<defs>
<radialGradient id="radial0" gradientUnits="userSpaceOnUse" cx="0.2245" cy="0.0876" fx="0.2245" fy="0.0876" r="1.13287" gradientTransform="matrix(25.222656,0,0,28.699219,19.035156,17.535156)">
<stop offset="0" style="stop-color:rgb(100%,80%,0%);stop-opacity:1;"/>
<stop offset="0.09157" style="stop-color:rgb(100%,78.431373%,0%);stop-opacity:1;"/>
<stop offset="0.1739" style="stop-color:rgb(100%,74.117647%,0%);stop-opacity:1;"/>
<stop offset="0.2528" style="stop-color:rgb(100%,67.058824%,0%);stop-opacity:1;"/>
<stop offset="0.3295" style="stop-color:rgb(100%,56.862745%,0%);stop-opacity:1;"/>
<stop offset="0.4046" style="stop-color:rgb(100%,43.921569%,0%);stop-opacity:1;"/>
<stop offset="0.4786" style="stop-color:rgb(100%,27.843137%,0%);stop-opacity:1;"/>
<stop offset="0.5503" style="stop-color:rgb(100%,9.411765%,0%);stop-opacity:1;"/>
<stop offset="0.5822" style="stop-color:rgb(100%,0%,0%);stop-opacity:1;"/>
<stop offset="1" style="stop-color:rgb(100%,0%,0%);stop-opacity:1;"/>
</radialGradient>
<radialGradient id="radial1" gradientUnits="userSpaceOnUse" cx="0.02431" cy="0.14525" fx="0.02431" fy="0.14525" r="1.39175" gradientTransform="matrix(18.792969,0,0,28.734375,6.964844,17.53125)">
<stop offset="0" style="stop-color:rgb(0%,70.588235%,90.196078%);stop-opacity:1;"/>
<stop offset="0.201" style="stop-color:rgb(0%,69.019608%,89.019608%);stop-opacity:1;"/>
<stop offset="0.3898" style="stop-color:rgb(0.392157%,64.705882%,85.882353%);stop-opacity:1;"/>
<stop offset="0.5737" style="stop-color:rgb(0.784314%,57.254902%,80.392157%);stop-opacity:1;"/>
<stop offset="0.7546" style="stop-color:rgb(1.176471%,46.666667%,72.941176%);stop-opacity:1;"/>
<stop offset="0.9316" style="stop-color:rgb(1.568627%,33.333333%,63.137255%);stop-opacity:1;"/>
<stop offset="1" style="stop-color:rgb(1.960784%,27.45098%,58.823529%);stop-opacity:1;"/>
</radialGradient>
</defs>
<g id="surface1">
<rect x="0" y="0" width="185" height="61" style="fill:rgb(0%,0%,0%);fill-opacity:1;stroke:none;"/>
<path style=" stroke:none;fill-rule:nonzero;fill:rgb(100%,100%,100%);fill-opacity:1;" d="M 52.726562 44.339844 C 52.726562 45.125 52.175781 46.070312 51.496094 46.460938 L 27.671875 60.289062 C 26.988281 60.683594 25.886719 60.683594 25.203125 60.289062 L 1.382812 46.460938 C 0.699219 46.070312 0.148438 45.125 0.148438 44.339844 L 0.148438 16.683594 C 0.148438 15.902344 0.703125 14.957031 1.382812 14.5625 L 25.203125 0.734375 C 25.886719 0.34375 26.988281 0.34375 27.671875 0.734375 L 51.496094 14.5625 C 52.175781 14.957031 52.726562 15.902344 52.726562 16.683594 Z M 184.984375 18.675781 L 163.660156 18.675781 L 163.660156 23.792969 L 171.320312 23.792969 L 171.320312 45.679688 L 177.355469 45.679688 L 177.355469 23.792969 L 184.984375 23.792969 Z M 88.105469 18.675781 L 66.75 18.675781 L 66.75 23.792969 L 74.410156 23.792969 L 74.410156 45.679688 L 80.445312 45.679688 L 80.445312 23.792969 L 88.105469 23.792969 Z M 149.835938 17.828125 C 143.117188 17.828125 139.382812 22.132812 139.382812 28.359375 L 139.382812 45.679688 L 145.355469 45.679688 L 145.355469 28.230469 C 145.355469 25.523438 146.945312 23.4375 149.898438 23.4375 C 152.855469 23.4375 154.410156 25.914062 154.410156 28.230469 L 154.410156 45.679688 L 160.382812 45.679688 L 160.382812 28.359375 C 160.417969 22.132812 156.554688 17.828125 149.835938 17.828125 Z M 127.3125 18.675781 L 127.3125 45.679688 L 133.285156 45.679688 L 133.285156 18.675781 Z M 107.058594 29.371094 L 107.253906 30.578125 L 112.867188 45.679688 L 115.300781 45.679688 L 122.929688 18.675781 L 117.054688 18.675781 L 113.417969 32.863281 L 113.191406 34.394531 L 112.898438 32.863281 L 108.03125 18.675781 L 106.085938 18.675781 L 101.214844 32.863281 L 100.925781 34.394531 L 100.730469 32.863281 L 97.09375 18.675781 L 91.1875 18.675781 L 98.816406 45.679688 L 101.25 45.679688 L 106.863281 30.578125 L 107.058594 29.371094 "/>
<path style=" stroke:none;fill-rule:nonzero;fill:url(#radial0);" d="M 38.867188 30.578125 L 32.636719 39.742188 L 29.457031 34.851562 L 33.121094 29.339844 C 33.804688 28.359375 35.265625 25.65625 33.578125 21.96875 C 32.214844 18.96875 29.261719 17.535156 26.664062 17.535156 C 24.066406 17.535156 21.242188 18.871094 19.71875 21.96875 C 17.996094 25.523438 19.492188 28.296875 20.140625 29.242188 C 20.140625 29.242188 22.183594 32.242188 23.871094 34.789062 L 26.632812 38.796875 L 30.785156 45.191406 C 30.820312 45.226562 31.46875 46.234375 32.636719 46.234375 C 33.738281 46.234375 34.421875 45.226562 34.519531 45.125 L 44.257812 30.644531 L 38.867188 30.644531 Z M 26.632812 30.804688 C 26.632812 30.804688 25.007812 28.328125 23.9375 26.597656 C 22.800781 24.738281 24.066406 21.96875 26.632812 21.96875 C 29.195312 21.96875 30.460938 24.742188 29.328125 26.597656 C 28.289062 28.328125 26.632812 30.804688 26.632812 30.804688 Z M 26.632812 30.804688 "/>
<path style=" stroke:none;fill-rule:nonzero;fill:url(#radial1);" d="M 20.660156 39.449219 L 14.558594 30.839844 C 14.558594 30.839844 12.933594 28.359375 11.863281 26.632812 C 10.726562 24.773438 11.992188 22 14.558594 22 C 14.882812 22 15.175781 22.035156 15.46875 22.132812 L 17.609375 18.183594 C 16.636719 17.761719 15.566406 17.53125 14.589844 17.53125 C 11.996094 17.53125 9.171875 18.867188 7.644531 21.96875 C 5.925781 25.523438 7.417969 28.292969 8.066406 29.242188 L 18.746094 45.125 C 18.84375 45.253906 19.523438 46.265625 20.660156 46.265625 C 21.796875 46.265625 22.445312 45.289062 22.542969 45.160156 L 25.757812 40.234375 L 23 36.15625 Z M 20.660156 39.449219 "/>
</g>
</svg>
